Coordinates
version=1
nRows=12
nColumns=34
inDegrees=yes

Units are S.I. units (second, meters, Newtons, ...)
If the header above contains a line with 'inDegrees', this indicates whether rotational values are in degrees (yes) or radians (no).

endheader
time	pelvis_tilt	pelvis_list	pelvis_rotation	pelvis_tx	pelvis_ty	pelvis_tz	hip_flexion_r	hip_adduction_r	hip_rotation_r	knee_angle_r	ankle_angle_r	subtalar_angle_r	mtp_angle_r	hip_flexion_l	hip_adduction_l	hip_rotation_l	knee_angle_l	ankle_angle_l	subtalar_angle_l	mtp_angle_l	lumbar_extension	lumbar_bending	lumbar_rotation	arm_flex_r	arm_add_r	arm_rot_r	elbow_flex_r	pro_sup_r	arm_flex_l	arm_add_l	arm_rot_l	elbow_flex_l	pro_sup_l
      0.00000000	     -2.38552614	     -3.62734061	    -49.55211776	      2.43886906	      0.99047920	      7.01858212	     39.11694519	     11.66624097	     17.25369611	     32.64248606	     -0.28058454	      2.86340800	      0.00000000	     28.72608555	     21.22347216	     14.52101701	     21.69645362	    -10.06278775	     -7.12286295	      0.00000000	    -13.04041498	     -2.23667942	     65.61152421	     24.84963594	     13.75652300	     37.53416509	     99.11760267	    119.74814704	      8.00241041	     33.92940855	     39.16100543	     95.95674127	    112.95620525
      0.01666670	     -2.25726537	     -3.51712977	    -49.27729603	      2.43784088	      0.99059581	      7.01830892	     38.80110147	     11.35148127	     17.06527187	     31.89770969	     -1.08122520	      2.33468076	      0.00000000	     28.90752730	     21.43505692	     14.13695144	     21.87600471	    -10.42074143	     -7.38565494	      0.00000000	    -13.22463611	     -2.55646649	     65.35569559	     24.98038908	     14.04876572	     37.22546782	     99.22143721	    119.67815720	      8.34597953	     33.94876041	     39.25117121	     96.11476854	    113.04097558
      0.03333330	     -1.88564683	     -3.15512254	    -49.35067301	      2.43584406	      0.99135475	      7.01805636	     38.07578955	     10.51495984	     15.96588045	     29.80831567	     -2.76518076	      1.83765295	      0.00000000	     29.43934660	     21.74270371	     12.96340263	     22.20089064	    -11.37741564	     -7.59637415	      0.00000000	    -13.44287340	     -3.48459610	     65.09190323	     25.03079071	     14.79028360	     37.08504522	     99.60673752	    119.59460792	      8.39372245	     34.36580212	     39.28155251	     96.64069695	    113.10712416
      0.05000000	     -1.15146546	     -2.61674939	    -49.50914737	      2.43408500	      0.99227925	      7.01922373	     37.52410538	     10.08015450	     16.29906769	     29.07552583	     -4.41911068	     -1.52031849	      0.00000000	     29.58298484	     22.38599380	     11.80278370	     21.99559385	    -12.67716292	     -8.14818381	      0.00000000	    -13.62034223	     -4.91610095	     64.78048205	     24.93563992	     15.83160411	     37.51530086	     99.65086026	    119.13263625	      8.24268888	     34.81815794	     39.29447240	     97.02623541	    113.31022426
      0.06666670	     -0.83720102	     -1.86020645	    -49.39383595	      2.43235083	      0.99210271	      7.02011220	     37.78638338	      9.68188636	     16.82704799	     29.01639698	     -5.56027124	     -4.40953114	      0.00000000	     30.35382754	     22.96760986	     10.90940412	     22.25031707	    -13.57910481	     -8.30474161	      0.00000000	    -13.32045992	     -5.94924522	     64.35685499	     25.55642908	     15.79678416	     38.50758560	     99.29731818	    118.75186417	      8.67005621	     35.42267379	     38.98268862	     96.68328401	    113.35738251
      0.08333330	     -0.75369104	     -1.68545001	    -49.88877074	      2.42963108	      0.99259281	      7.01967797	     37.52001498	     10.05641858	     18.04401444	     28.45178121	     -7.29367324	     -7.21234439	      0.00000000	     31.47012592	     22.75843406	      8.89877359	     23.19758603	    -14.88781979	     -9.06151220	      0.00000000	    -13.25038077	     -6.41246369	     62.99056043	     26.12536135	     16.57803180	     38.67298546	     99.12216736	    118.23048783	      9.63239441	     35.62925009	     38.49582693	     96.33462618	    113.35361071
      0.10000000	     -0.88307272	     -1.51876314	    -50.42331851	      2.42785729	      0.99268137	      7.01704258	     37.83935089	     10.23991644	     18.18964375	     28.28842249	     -9.31048115	     -9.50482852	      0.00000000	     33.10880266	     22.57913782	      6.86706895	     24.55946113	    -17.06133748	    -10.97745269	      0.00000000	    -13.35147322	     -6.38160124	     63.26219185	     26.19301961	     17.05850433	     39.15966546	     99.64347956	    117.79335279	      9.41841416	     36.62470015	     38.91519712	     95.55037631	    113.33487565
      0.11666670	     -0.84480728	     -1.57638850	    -50.16027357	      2.42733269	      0.99451627	      7.01411868	     37.83573266	      9.59639012	     16.35835724	     28.13064140	     -9.76789055	    -10.54076202	      0.00000000	     33.80485538	     22.32675524	      4.27880762	     25.09172530	    -19.19101689	    -11.04836168	      0.00000000	    -13.84739266	     -6.15760854	     63.37005363	     26.56981506	     16.61572878	     38.61978068	    100.40826058	    117.68729863	      8.62706742	     37.39921343	     38.41094608	     95.28658177	    113.28667985
      0.13333330	     -1.33370107	     -2.07753093	    -50.69401602	      2.42955882	      0.99647990	      7.01132071	     37.57650900	      9.73620668	     14.62317496	     27.66689427	    -11.09508844	    -10.79599297	      0.00000000	     34.35007612	     21.18299761	      0.54332317	     25.54677156	    -21.12619107	    -12.00624498	      0.00000000	    -13.83428448	     -4.91510598	     63.02250640	     25.23937813	     17.42109613	     39.62090920	    100.69378777	    117.48669601	      7.82649078	     37.77898440	     38.67972444	     94.56280624	    113.24385521
      0.15000000	     -1.39480266	     -2.41694524	    -51.22446381	      2.43033041	      0.99672204	      7.00995007	     37.17514037	      9.93269792	     13.83984802	     27.24731138	    -11.81977453	    -12.35532569	      0.00000000	     34.79700351	     20.61010386	     -1.75995594	     26.29727659	    -22.01770426	    -13.32285183	      0.00000000	    -14.06353699	     -4.30945367	     62.57006363	     24.53972974	     17.69422009	     40.22518781	    100.21469698	    117.14179180	      7.92002838	     38.55938918	     38.82406807	     94.17845455	    113.19590103
      0.16666670	     -1.24145244	     -2.46132947	    -51.46038995	      2.43163679	      0.99524717	      7.00769356	     37.60732409	      9.41473634	     12.80105833	     27.83338356	    -13.12794302	    -12.02103956	      0.00000000	     34.92599367	     20.49421673	     -3.34614637	     26.30832258	    -23.30808578	    -13.07486597	      0.00000000	    -14.17509230	     -4.05082358	     61.92525234	     23.61835984	     17.91477949	     40.90947829	    100.30503245	    117.07581851	      8.68753040	     39.09761400	     37.93809840	     93.56441861	    113.12888144
      0.18333330	     -1.67686671	     -3.03044533	    -52.74763813	      2.43022691	      0.99241510	      7.00408032	     38.00091261	      9.88018959	     11.05016098	     28.05501714	    -13.48377623	     -9.41281785	      0.00000000	     35.48709361	     19.09477359	     -5.69516782	     27.04346505	    -23.06128865	    -13.62607773	      0.00000000	    -14.46624997	     -3.01101520	     61.62521992	     23.26799806	     18.60090115	     40.75283158	     99.71234170	    116.62842387	      9.29800747	     40.05261589	     37.13605821	     94.19237422	    113.23539279
